<?xml version="1.0" encoding="UTF-8" standalone="no"?>
<!-- Created with Inkscape (http://www.inkscape.org/) -->

<svg
   xmlns:dc="http://purl.org/dc/elements/1.1/"
   xmlns:cc="http://creativecommons.org/ns#"
   xmlns:rdf="http://www.w3.org/1999/02/22-rdf-syntax-ns#"
   xmlns:svg="http://www.w3.org/2000/svg"
   xmlns="http://www.w3.org/2000/svg"
   xmlns:sodipodi="http://sodipodi.sourceforge.net/DTD/sodipodi-0.dtd"
   xmlns:inkscape="http://www.inkscape.org/namespaces/inkscape"
   width="102.39375mm"
   height="102.39376mm"
   viewBox="0 0 102.39375 102.39376"
   version="1.1"
   id="svg3758"
   inkscape:version="0.92.3 (2405546, 2018-03-11)"
   sodipodi:docname="logo.svg">
  <defs
     id="defs3752" />
  <sodipodi:namedview
     id="base"
     pagecolor="#ffffff"
     bordercolor="#666666"
     borderopacity="1.0"
     inkscape:pageopacity="0.0"
     inkscape:pageshadow="2"
     inkscape:zoom="0.35"
     inkscape:cx="173.5"
     inkscape:cy="70.642872"
     inkscape:document-units="mm"
     inkscape:current-layer="layer1"
     showgrid="false"
     inkscape:window-width="1920"
     inkscape:window-height="1001"
     inkscape:window-x="-9"
     inkscape:window-y="-9"
     inkscape:window-maximized="1" />
  <metadata
     id="metadata3755">
    <rdf:RDF>
      <cc:Work
         rdf:about="">
        <dc:format>image/svg+xml</dc:format>
        <dc:type
           rdf:resource="http://purl.org/dc/dcmitype/StillImage" />
        <dc:title></dc:title>
      </cc:Work>
    </rdf:RDF>
  </metadata>
  <g
     inkscape:label="Layer 1"
     inkscape:groupmode="layer"
     id="layer1"
     transform="translate(-59.928125,-65.130501)">
    <path
       style="fill:#000000;stroke-width:0.26458332"
       d="M 59.928125,116.32738 V 65.130501 h 51.196865 51.19688 v 51.196879 51.19688 H 111.12499 59.928125 Z m 31.424205,23.14305 c 4.776504,-0.59893 8.95012,-2.25326 12.97399,-5.1426 2.47442,-1.77676 2.88147,-1.93201 3.79027,-1.44563 0.38183,0.20435 0.6305,0.19845 0.89519,-0.0212 0.29958,-0.24863 -0.12086,-0.89218 -2.30225,-3.52409 -1.46781,-1.77096 -2.70903,-3.26665 -2.75827,-3.32377 -0.0492,-0.0571 -0.25892,0.0367 -0.46598,0.20857 -0.29608,0.24574 -0.31545,0.47403 -0.0907,1.06934 0.38568,1.0218 -0.11079,1.74217 -2.38949,3.46721 -2.281236,1.72694 -5.443936,3.27898 -8.136296,3.99277 -2.824623,0.74884 -8.390436,0.81942 -11.112496,0.14092 -4.200362,-1.04698 -8.50067,-3.88429 -10.825952,-7.14288 -1.888678,-2.64674 -2.602293,-4.52921 -3.201429,-8.44511 l -0.151805,-0.99219 h -2.535737 -2.53574 l 0.182038,1.84741 c 0.869236,8.82137 7.166094,16.07542 16.076112,18.51984 3.788137,1.03926 8.333207,1.325 12.588596,0.79142 z m 56.15287,-0.78844 c 5.50369,-0.84252 8.25286,-2.6321 10.15726,-6.6119 0.77961,-1.62923 0.82295,-1.88699 0.82295,-4.89479 0,-2.926 -0.0583,-3.29951 -0.74279,-4.7625 -0.44827,-0.95806 -1.27322,-2.08581 -2.08059,-2.84427 l -1.33781,-1.25677 H 136.7595 119.19479 v 9.24151 c 0,9.88993 0.0141,9.781 -1.32449,10.20586 -0.29018,0.0921 -0.5276,0.39755 -0.5276,0.67879 0,0.49907 0.34099,0.51129 14.22136,0.50934 8.09362,-0.001 14.96238,-0.11544 15.94114,-0.26527 z m -23.28333,-11.65435 v -7.95287 l 11.44323,0.0931 c 13.12401,0.10673 13.32395,0.1354 15.56583,2.23241 1.87781,1.75648 2.48515,3.1758 2.47119,5.77507 -0.0242,4.50753 -2.41154,6.88442 -7.56354,7.53043 -1.20525,0.15113 -6.62957,0.27478 -12.05404,0.27478 h -9.86267 z M 67.865625,115.24109 c 0,-1.23914 0.820401,-3.90565 1.743339,-5.66628 2.356141,-4.49469 6.846178,-7.7114 12.334568,-8.83662 2.840172,-0.58228 7.904372,-0.54385 10.925212,0.0829 3.00912,0.62433 6.23436,1.86659 8.281706,3.18986 1.63833,1.0589 2.06531,1.71881 1.79891,2.78024 -0.1339,0.53349 0.46851,1.49993 0.73139,1.17336 0.42458,-0.52742 4.40154,-7.39012 4.40154,-7.59535 0,-0.557562 -0.68602,-0.489424 -1.35681,0.13478 l -0.69535,0.64705 -2.61194,-1.308512 c -6.192386,-3.10219 -12.50891,-4.365051 -18.825891,-3.763841 -6.887067,0.655471 -11.514285,2.543021 -15.476947,6.313403 -3.581619,3.40783 -5.648314,7.48007 -6.367311,12.54623 l -0.140814,0.99219 h 2.629199 2.629199 z m 86.515415,-0.2651 c 0.58109,-0.52498 1.44464,-1.74287 1.91899,-2.70642 0.80467,-1.6345 0.86144,-1.92956 0.84725,-4.40329 -0.0206,-3.58874 -0.65609,-5.22944 -2.87205,-7.41483 -1.73115,-1.707274 -3.07871,-2.482953 -5.58194,-3.213074 -1.40579,-0.41003 -3.26741,-0.473149 -16.46778,-0.558339 l -14.88281,-0.096 v 0.553432 c 0,0.30439 0.20836,0.62733 0.46302,0.71764 1.41994,0.50356 1.38907,0.29201 1.38907,9.517481 v 8.55796 h 17.06486 17.06486 z m -30.15917,-7.11528 v -7.04737 l 11.17864,0.0904 c 10.9706,0.0887 11.20727,0.10181 12.71629,0.70452 2.87651,1.14889 4.40386,3.36326 4.40386,6.38477 0,2.12582 -0.58077,3.49093 -2.04792,4.81371 -2.02576,1.8264 -2.51779,1.89178 -15.07223,2.00265 l -11.17864,0.0987 z"
       id="path3735"
       inkscape:connector-curvature="0"
       inkscape:export-xdpi="74.418602"
       inkscape:export-ydpi="74.418602" />
  </g>
</svg>
